<svg width="39" height="13" viewBox="0 0 39 13" fill="none" xmlns="http://www.w3.org/2000/svg">
<path d="M16.3806 8.5093L15.8853 8.44084L16.3806 8.5093ZM35.8197 10.2658C36.0772 10.3654 36.3667 10.2374 36.4663 9.97982L38.0894 5.78272C38.189 5.52517 38.061 5.23564 37.8034 5.13604C37.5458 5.03644 37.2563 5.16449 37.1567 5.42204L35.714 9.1528L31.9832 7.71008C31.7257 7.61048 31.4362 7.73853 31.3366 7.99608C31.237 8.25364 31.365 8.54317 31.6226 8.64277L35.8197 10.2658ZM1.88918 9.31774C1.59605 9.23619 1.3671 9.18266 1.2091 9.16173C1.1537 9.15439 1.02103 9.13694 0.891696 9.17127C0.838632 9.18535 0.604637 9.25603 0.52289 9.52056C0.44526 9.77176 0.582722 9.95763 0.610681 9.9943C0.68747 10.095 0.794385 10.1611 0.839595 10.1888C0.905789 10.2295 0.984974 10.2715 1.07107 10.3137C1.24459 10.3987 1.47513 10.4986 1.74957 10.6072C2.84624 11.0411 4.74825 11.6549 6.83111 12.0643C8.90315 12.4717 11.2129 12.689 13.0967 12.2844C14.0439 12.081 14.9138 11.714 15.5892 11.1062C16.2729 10.4908 16.7269 9.65514 16.8758 8.57776L15.8853 8.44084C15.7667 9.2989 15.418 9.91483 14.9202 10.3629C14.4139 10.8186 13.7232 11.127 12.8868 11.3067C11.2035 11.6682 9.05421 11.4822 7.024 11.0831C5.00461 10.6861 3.1611 10.0902 2.11747 9.67733C1.85683 9.57421 1.65262 9.48507 1.51123 9.41576C1.43987 9.38078 1.39155 9.35428 1.36265 9.33654C1.31275 9.30592 1.35697 9.3238 1.40589 9.38796C1.41991 9.40636 1.55215 9.57687 1.47831 9.81581C1.40035 10.0681 1.17916 10.1296 1.14821 10.1378C1.06312 10.1604 1.01197 10.1444 1.07779 10.1531C1.16225 10.1643 1.33461 10.2014 1.62115 10.2812L1.88918 9.31774ZM16.8758 8.57776C17.3775 4.94832 20.5554 1.96918 24.3476 1.55029C28.0807 1.13793 32.5412 3.21489 35.5427 10.0017L36.4573 9.59725C33.3286 2.52297 28.5143 0.0839537 24.2378 0.556337C20.0204 1.02219 16.4537 4.32851 15.8853 8.44084L16.8758 8.57776Z" fill="#FF8B01"/>
</svg>
