<svg width="1200" height="80" viewBox="0 0 1200 80" fill="none" xmlns="http://www.w3.org/2000/svg">
<g clip-path="url(#clip0_48_245)">
<rect width="1200" height="80" fill="#E3073C"/>
<path fill-rule="evenodd" clip-rule="evenodd" d="M400 1H440V41H400V1ZM440 41H480V81H440V41ZM440 1H442L440 3V1ZM440 5L444 1H446L440 7V5ZM440 9L448 1H450L440 11V9ZM440 13L452 1H454L440 15V13ZM440 17L456 1H458L440 19V17ZM440 21L460 1H462L440 23V21ZM440 25L464 1H466L440 27V25ZM440 29L468 1H470L440 31V29ZM440 33L472 1H474L440 35V33ZM440 37L476 1H478L440 39V37ZM440 41L480 1V3L442 41H440ZM444 41L480 5V7L446 41H444ZM448 41L480 9V11L450 41H448ZM452 41L480 13V15L454 41H452ZM456 41L480 17V19L458 41H456ZM460 41L480 21V23L462 41H460ZM464 41L480 25V27L466 41H464ZM468 41L480 29V31L470 41H468ZM472 41L480 33V35L474 41H472ZM476 41L480 37V39L478 41H476Z" fill="#FFBC33"/>
<path fill-rule="evenodd" clip-rule="evenodd" d="M0 0H40V40H0V0ZM40 40H80V80H40V40ZM40 0H42L40 2V0ZM40 4L44 0H46L40 6V4ZM40 8L48 0H50L40 10V8ZM40 12L52 0H54L40 14V12ZM40 16L56 0H58L40 18V16ZM40 20L60 0H62L40 22V20ZM40 24L64 0H66L40 26V24ZM40 28L68 0H70L40 30V28ZM40 32L72 0H74L40 34V32ZM40 36L76 0H78L40 38V36ZM40 40L80 0V2L42 40H40ZM44 40L80 4V6L46 40H44ZM48 40L80 8V10L50 40H48ZM52 40L80 12V14L54 40H52ZM56 40L80 16V18L58 40H56ZM60 40L80 20V22L62 40H60ZM64 40L80 24V26L66 40H64ZM68 40L80 28V30L70 40H68ZM72 40L80 32V34L74 40H72ZM76 40L80 36V38L78 40H76Z" fill="#FFBC33"/>
<path fill-rule="evenodd" clip-rule="evenodd" d="M240 0H280V40H240V0ZM280 40H320V80H280V40ZM280 0H282L280 2V0ZM280 4L284 0H286L280 6V4ZM280 8L288 0H290L280 10V8ZM280 12L292 0H294L280 14V12ZM280 16L296 0H298L280 18V16ZM280 20L300 0H302L280 22V20ZM280 24L304 0H306L280 26V24ZM280 28L308 0H310L280 30V28ZM280 32L312 0H314L280 34V32ZM280 36L316 0H318L280 38V36ZM280 40L320 0V2L282 40H280ZM284 40L320 4V6L286 40H284ZM288 40L320 8V10L290 40H288ZM292 40L320 12V14L294 40H292ZM296 40L320 16V18L298 40H296ZM300 40L320 20V22L302 40H300ZM304 40L320 24V26L306 40H304ZM308 40L320 28V30L310 40H308ZM312 40L320 32V34L314 40H312ZM316 40L320 36V38L318 40H316Z" fill="#FFBC33"/>
<path fill-rule="evenodd" clip-rule="evenodd" d="M80 0H120V40H80V0ZM120 40H160V80H120V40ZM120 0H122L120 2V0ZM120 4L124 0H126L120 6V4ZM120 8L128 0H130L120 10V8ZM120 12L132 0H134L120 14V12ZM120 16L136 0H138L120 18V16ZM120 20L140 0H142L120 22V20ZM120 24L144 0H146L120 26V24ZM120 28L148 0H150L120 30V28ZM120 32L152 0H154L120 34V32ZM120 36L156 0H158L120 38V36ZM120 40L160 0V2L122 40H120ZM124 40L160 4V6L126 40H124ZM128 40L160 8V10L130 40H128ZM132 40L160 12V14L134 40H132ZM136 40L160 16V18L138 40H136ZM140 40L160 20V22L142 40H140ZM144 40L160 24V26L146 40H144ZM148 40L160 28V30L150 40H148ZM152 40L160 32V34L154 40H152ZM156 40L160 36V38L158 40H156Z" fill="#FFBC33"/>
<path fill-rule="evenodd" clip-rule="evenodd" d="M320 0H360V40H320V0ZM360 40H400V80H360V40ZM360 0H362L360 2V0ZM360 4L364 0H366L360 6V4ZM360 8L368 0H370L360 10V8ZM360 12L372 0H374L360 14V12ZM360 16L376 0H378L360 18V16ZM360 20L380 0H382L360 22V20ZM360 24L384 0H386L360 26V24ZM360 28L388 0H390L360 30V28ZM360 32L392 0H394L360 34V32ZM360 36L396 0H398L360 38V36ZM360 40L400 0V2L362 40H360ZM364 40L400 4V6L366 40H364ZM368 40L400 8V10L370 40H368ZM372 40L400 12V14L374 40H372ZM376 40L400 16V18L378 40H376ZM380 40L400 20V22L382 40H380ZM384 40L400 24V26L386 40H384ZM388 40L400 28V30L390 40H388ZM392 40L400 32V34L394 40H392ZM396 40L400 36V38L398 40H396Z" fill="#FFBC33"/>
<path fill-rule="evenodd" clip-rule="evenodd" d="M160 0H200V40H160V0ZM200 40H240V80H200V40ZM200 0H202L200 2V0ZM200 4L204 0H206L200 6V4ZM200 8L208 0H210L200 10V8ZM200 12L212 0H214L200 14V12ZM200 16L216 0H218L200 18V16ZM200 20L220 0H222L200 22V20ZM200 24L224 0H226L200 26V24ZM200 28L228 0H230L200 30V28ZM200 32L232 0H234L200 34V32ZM200 36L236 0H238L200 38V36ZM200 40L240 0V2L202 40H200ZM204 40L240 4V6L206 40H204ZM208 40L240 8V10L210 40H208ZM212 40L240 12V14L214 40H212ZM216 40L240 16V18L218 40H216ZM220 40L240 20V22L222 40H220ZM224 40L240 24V26L226 40H224ZM228 40L240 28V30L230 40H228ZM232 40L240 32V34L234 40H232ZM236 40L240 36V38L238 40H236Z" fill="#FFBC33"/>
<path fill-rule="evenodd" clip-rule="evenodd" d="M480 0H520V40H480V0ZM520 40H560V80H520V40ZM520 0H522L520 2V0ZM520 4L524 0H526L520 6V4ZM520 8L528 0H530L520 10V8ZM520 12L532 0H534L520 14V12ZM520 16L536 0H538L520 18V16ZM520 20L540 0H542L520 22V20ZM520 24L544 0H546L520 26V24ZM520 28L548 0H550L520 30V28ZM520 32L552 0H554L520 34V32ZM520 36L556 0H558L520 38V36ZM520 40L560 0V2L522 40H520ZM524 40L560 4V6L526 40H524ZM528 40L560 8V10L530 40H528ZM532 40L560 12V14L534 40H532ZM536 40L560 16V18L538 40H536ZM540 40L560 20V22L542 40H540ZM544 40L560 24V26L546 40H544ZM548 40L560 28V30L550 40H548ZM552 40L560 32V34L554 40H552ZM556 40L560 36V38L558 40H556Z" fill="#FFBC33"/>
<path fill-rule="evenodd" clip-rule="evenodd" d="M720 0H760V40H720V0ZM760 40H800V80H760V40ZM760 0H762L760 2V0ZM760 4L764 0H766L760 6V4ZM760 8L768 0H770L760 10V8ZM760 12L772 0H774L760 14V12ZM760 16L776 0H778L760 18V16ZM760 20L780 0H782L760 22V20ZM760 24L784 0H786L760 26V24ZM760 28L788 0H790L760 30V28ZM760 32L792 0H794L760 34V32ZM760 36L796 0H798L760 38V36ZM760 40L800 0V2L762 40H760ZM764 40L800 4V6L766 40H764ZM768 40L800 8V10L770 40H768ZM772 40L800 12V14L774 40H772ZM776 40L800 16V18L778 40H776ZM780 40L800 20V22L782 40H780ZM784 40L800 24V26L786 40H784ZM788 40L800 28V30L790 40H788ZM792 40L800 32V34L794 40H792ZM796 40L800 36V38L798 40H796Z" fill="#FFBC33"/>
<path fill-rule="evenodd" clip-rule="evenodd" d="M800 0H840V40H800V0ZM840 40H880V80H840V40ZM840 0H842L840 2V0ZM840 4L844 0H846L840 6V4ZM840 8L848 0H850L840 10V8ZM840 12L852 0H854L840 14V12ZM840 16L856 0H858L840 18V16ZM840 20L860 0H862L840 22V20ZM840 24L864 0H866L840 26V24ZM840 28L868 0H870L840 30V28ZM840 32L872 0H874L840 34V32ZM840 36L876 0H878L840 38V36ZM840 40L880 0V2L842 40H840ZM844 40L880 4V6L846 40H844ZM848 40L880 8V10L850 40H848ZM852 40L880 12V14L854 40H852ZM856 40L880 16V18L858 40H856ZM860 40L880 20V22L862 40H860ZM864 40L880 24V26L866 40H864ZM868 40L880 28V30L870 40H868ZM872 40L880 32V34L874 40H872ZM876 40L880 36V38L878 40H876Z" fill="#FFBC33"/>
<path fill-rule="evenodd" clip-rule="evenodd" d="M560 0H600V40H560V0ZM600 40H640V80H600V40ZM600 0H602L600 2V0ZM600 4L604 0H606L600 6V4ZM600 8L608 0H610L600 10V8ZM600 12L612 0H614L600 14V12ZM600 16L616 0H618L600 18V16ZM600 20L620 0H622L600 22V20ZM600 24L624 0H626L600 26V24ZM600 28L628 0H630L600 30V28ZM600 32L632 0H634L600 34V32ZM600 36L636 0H638L600 38V36ZM600 40L640 0V2L602 40H600ZM604 40L640 4V6L606 40H604ZM608 40L640 8V10L610 40H608ZM612 40L640 12V14L614 40H612ZM616 40L640 16V18L618 40H616ZM620 40L640 20V22L622 40H620ZM624 40L640 24V26L626 40H624ZM628 40L640 28V30L630 40H628ZM632 40L640 32V34L634 40H632ZM636 40L640 36V38L638 40H636Z" fill="#FFBC33"/>
<path fill-rule="evenodd" clip-rule="evenodd" d="M880 0H920V40H880V0ZM920 40H960V80H920V40ZM920 0H922L920 2V0ZM920 4L924 0H926L920 6V4ZM920 8L928 0H930L920 10V8ZM920 12L932 0H934L920 14V12ZM920 16L936 0H938L920 18V16ZM920 20L940 0H942L920 22V20ZM920 24L944 0H946L920 26V24ZM920 28L948 0H950L920 30V28ZM920 32L952 0H954L920 34V32ZM920 36L956 0H958L920 38V36ZM920 40L960 0V2L922 40H920ZM924 40L960 4V6L926 40H924ZM928 40L960 8V10L930 40H928ZM932 40L960 12V14L934 40H932ZM936 40L960 16V18L938 40H936ZM940 40L960 20V22L942 40H940ZM944 40L960 24V26L946 40H944ZM948 40L960 28V30L950 40H948ZM952 40L960 32V34L954 40H952ZM956 40L960 36V38L958 40H956Z" fill="#FFBC33"/>
<path fill-rule="evenodd" clip-rule="evenodd" d="M1120 0H1160V40H1120V0ZM1160 40H1200V80H1160V40ZM1160 0H1162L1160 2V0ZM1160 4L1164 0H1166L1160 6V4ZM1160 8L1168 0H1170L1160 10V8ZM1160 12L1172 0H1174L1160 14V12ZM1160 16L1176 0H1178L1160 18V16ZM1160 20L1180 0H1182L1160 22V20ZM1160 24L1184 0H1186L1160 26V24ZM1160 28L1188 0H1190L1160 30V28ZM1160 32L1192 0H1194L1160 34V32ZM1160 36L1196 0H1198L1160 38V36ZM1160 40L1200 0V2L1162 40H1160ZM1164 40L1200 4V6L1166 40H1164ZM1168 40L1200 8V10L1170 40H1168ZM1172 40L1200 12V14L1174 40H1172ZM1176 40L1200 16V18L1178 40H1176ZM1180 40L1200 20V22L1182 40H1180ZM1184 40L1200 24V26L1186 40H1184ZM1188 40L1200 28V30L1190 40H1188ZM1192 40L1200 32V34L1194 40H1192ZM1196 40L1200 36V38L1198 40H1196Z" fill="#FFBC33"/>
<path fill-rule="evenodd" clip-rule="evenodd" d="M960 0H1000V40H960V0ZM1000 40H1040V80H1000V40ZM1000 0H1002L1000 2V0ZM1000 4L1004 0H1006L1000 6V4ZM1000 8L1008 0H1010L1000 10V8ZM1000 12L1012 0H1014L1000 14V12ZM1000 16L1016 0H1018L1000 18V16ZM1000 20L1020 0H1022L1000 22V20ZM1000 24L1024 0H1026L1000 26V24ZM1000 28L1028 0H1030L1000 30V28ZM1000 32L1032 0H1034L1000 34V32ZM1000 36L1036 0H1038L1000 38V36ZM1000 40L1040 0V2L1002 40H1000ZM1004 40L1040 4V6L1006 40H1004ZM1008 40L1040 8V10L1010 40H1008ZM1012 40L1040 12V14L1014 40H1012ZM1016 40L1040 16V18L1018 40H1016ZM1020 40L1040 20V22L1022 40H1020ZM1024 40L1040 24V26L1026 40H1024ZM1028 40L1040 28V30L1030 40H1028ZM1032 40L1040 32V34L1034 40H1032ZM1036 40L1040 36V38L1038 40H1036Z" fill="#FFBC33"/>
<path fill-rule="evenodd" clip-rule="evenodd" d="M1040 0H1080V40H1040V0ZM1080 40H1120V80H1080V40ZM1080 0H1082L1080 2V0ZM1080 4L1084 0H1086L1080 6V4ZM1080 8L1088 0H1090L1080 10V8ZM1080 12L1092 0H1094L1080 14V12ZM1080 16L1096 0H1098L1080 18V16ZM1080 20L1100 0H1102L1080 22V20ZM1080 24L1104 0H1106L1080 26V24ZM1080 28L1108 0H1110L1080 30V28ZM1080 32L1112 0H1114L1080 34V32ZM1080 36L1116 0H1118L1080 38V36ZM1080 40L1120 0V2L1082 40H1080ZM1084 40L1120 4V6L1086 40H1084ZM1088 40L1120 8V10L1090 40H1088ZM1092 40L1120 12V14L1094 40H1092ZM1096 40L1120 16V18L1098 40H1096ZM1100 40L1120 20V22L1102 40H1100ZM1104 40L1120 24V26L1106 40H1104ZM1108 40L1120 28V30L1110 40H1108ZM1112 40L1120 32V34L1114 40H1112ZM1116 40L1120 36V38L1118 40H1116Z" fill="#FFBC33"/>
<path fill-rule="evenodd" clip-rule="evenodd" d="M640 0H680V40H640V0ZM680 40H720V80H680V40ZM680 0H682L680 2V0ZM680 4L684 0H686L680 6V4ZM680 8L688 0H690L680 10V8ZM680 12L692 0H694L680 14V12ZM680 16L696 0H698L680 18V16ZM680 20L700 0H702L680 22V20ZM680 24L704 0H706L680 26V24ZM680 28L708 0H710L680 30V28ZM680 32L712 0H714L680 34V32ZM680 36L716 0H718L680 38V36ZM680 40L720 0V2L682 40H680ZM684 40L720 4V6L686 40H684ZM688 40L720 8V10L690 40H688ZM692 40L720 12V14L694 40H692ZM696 40L720 16V18L698 40H696ZM700 40L720 20V22L702 40H700ZM704 40L720 24V26L706 40H704ZM708 40L720 28V30L710 40H708ZM712 40L720 32V34L714 40H712ZM716 40L720 36V38L718 40H716Z" fill="#FFBC33"/>
</g>
<defs>
<clipPath id="clip0_48_245">
<rect width="1200" height="80" fill="white"/>
</clipPath>
</defs>
</svg>
