<svg width="124" height="59" viewBox="0 0 124 59" fill="none" xmlns="http://www.w3.org/2000/svg">
<path d="M73.867 15.6808C70.7463 11.9169 67.0415 8.93109 62.9641 6.89408C58.8867 4.85707 54.5167 3.80865 50.1033 3.80865C45.6899 3.80865 41.3199 4.85707 37.2424 6.89408C33.1651 8.93109 29.4602 11.9169 26.3395 15.6808L50.1033 44.3425L73.867 15.6808Z" fill="#FFD200"/>
<path d="M50.1331 44.3838C53.2538 48.1477 56.9585 51.1334 61.036 53.1704C65.1133 55.2074 69.4835 56.2558 73.8968 56.2558C78.31 56.2558 82.6807 55.2074 86.7579 53.1704C90.8351 51.1334 94.5403 48.1477 97.6608 44.3838L73.8968 15.722L50.1331 44.3838Z" fill="#06E07F"/>
<path d="M50.0744 44.3775C46.9537 48.1414 43.2488 51.1271 39.1715 53.1641C35.0941 55.2011 30.724 56.2495 26.3107 56.2495C21.8973 56.2495 17.5272 55.2011 13.4498 53.1641C9.37248 51.1271 5.66761 48.1414 2.54691 44.3775L26.3107 15.7157L50.0744 44.3775Z" fill="#E3073C"/>
<path d="M73.9257 15.6871C77.0461 11.9232 80.7513 8.93753 84.8285 6.90052C88.9057 4.86351 93.2764 3.81509 97.6892 3.81509C102.103 3.81509 106.473 4.86351 110.55 6.90052C114.627 8.93753 118.332 11.9232 121.453 15.6871L97.6892 44.3489L73.9257 15.6871Z" fill="#1F84EF"/>
</svg>
