<svg width="1200" height="126" viewBox="0 0 1200 126" fill="none" xmlns="http://www.w3.org/2000/svg">
<path d="M0 125.167L-22 2.00001C26.7252 -10.2485 48.5 42.5 110.5 31.5C149.716 33.7748 166.591 57.7813 206 56.7639C245.409 55.7465 331.021 7.66345 375 10.5C418.979 13.3365 451.326 41.3982 483.5 46C515.674 50.6018 550.175 21.0631 588.333 24.8194C626.491 28.5758 670.139 52.127 714.5 57.5C758.861 62.873 803.935 50.0676 848.333 39.4028C892.731 28.7379 943.62 19.4775 981.667 22.7361C1019.71 25.9947 1082.75 55.7029 1117 57.5C1151.25 59.2971 1156.71 33.1833 1200 21V125.167H0Z" fill="#8ED1FC"/>
</svg>
